<svg xmlns="http://www.w3.org/2000/svg" width="1081" height="681" fill="none"><path stroke="url(#a)" stroke-opacity=".1" stroke-width="1.334" d="M64.47 1H1v56.573M64.47 1v56.573M64.47 1h63.471m-63.47 56.573H1m63.47 0h63.471m-63.47 0v56.573M1 57.573v56.573M127.941 1v56.573m0-56.573h63.471m-63.471 56.573h63.471m-63.471 0v56.573M191.412 1v56.573m0-56.573h63.47m-63.47 56.573h63.47m-63.47 0v56.573M254.882 1v56.573m0-56.573h63.471m-63.471 56.573h63.471m-63.471 0v56.573M318.353 1v56.573m0-56.573h63.471m-63.471 56.573h63.471m-63.471 0v56.573M381.824 1v56.573m0-56.573h63.47m-63.47 56.573h63.47m-63.47 0v56.573M445.294 1v56.573m0-56.573h63.471m-63.471 56.573h63.471m-63.471 0v56.573M508.765 1v56.573m0-56.573h63.47m-63.47 56.573h63.47m-63.47 0v56.573M572.235 1v56.573m0-56.573h63.471m-63.471 56.573h63.471m-63.471 0v56.573M635.706 1v56.573m0-56.573h63.471m-63.471 56.573h63.471m-63.471 0v56.573M699.177 1v56.573m0-56.573h63.47m-63.47 56.573h63.47m-63.47 0v56.573M762.647 1v56.573m0-56.573h63.471m-63.471 56.573h63.471m-63.471 0v56.573M826.118 1v56.573m0-56.573h63.47m-63.47 56.573h63.47m-63.47 0v56.573M889.588 1v56.573m0-56.573h63.471m-63.471 56.573h63.471m-63.471 0v56.573M953.059 1v56.573m0-56.573h63.471m-63.471 56.573h63.471m-63.471 0v56.573M1016.53 1v56.573m0-56.573H1080v56.573m-63.47 0H1080m-63.47 0v56.573M1080 57.573v56.573m-1015.53 0H1m63.47 0h63.471m-63.47 0v56.573M1 114.146v56.573m126.941-56.573h63.471m-63.471 0v56.573m63.471-56.573h63.47m-63.47 0v56.573m63.47-56.573h63.471m-63.471 0v56.573m63.471-56.573h63.471m-63.471 0v56.573m63.471-56.573h63.47m-63.47 0v56.573m63.47-56.573h63.471m-63.471 0v56.573m63.471-56.573h63.47m-63.47 0v56.573m63.47-56.573h63.471m-63.471 0v56.573m63.471-56.573h63.471m-63.471 0v56.573m63.471-56.573h63.47m-63.47 0v56.573m63.47-56.573h63.471m-63.471 0v56.573m63.471-56.573h63.47m-63.47 0v56.573m63.47-56.573h63.471m-63.471 0v56.573m63.471-56.573h63.471m-63.471 0v56.573m63.471-56.573H1080m-63.47 0v56.573m63.47-56.573v56.573m-1015.53 0H1m63.47 0h63.471m-63.47 0v56.573M1 170.719v56.573m126.941-56.573h63.471m-63.471 0v56.573m63.471-56.573h63.47m-63.47 0v56.573m63.47-56.573h63.471m-63.471 0v56.573m63.471-56.573h63.471m-63.471 0v56.573m63.471-56.573h63.47m-63.47 0v56.573m63.47-56.573h63.471m-63.471 0v56.573m63.471-56.573h63.47m-63.47 0v56.573m63.47-56.573h63.471m-63.471 0v56.573m63.471-56.573h63.471m-63.471 0v56.573m63.471-56.573h63.47m-63.47 0v56.573m63.47-56.573h63.471m-63.471 0v56.573m63.471-56.573h63.47m-63.47 0v56.573m63.47-56.573h63.471m-63.471 0v56.573m63.471-56.573h63.471m-63.471 0v56.573m63.471-56.573H1080m-63.47 0v56.573m63.47-56.573v56.573m-1015.53 0H1m63.47 0h63.471m-63.47 0v56.573M1 227.292v56.573m126.941-56.573h63.471m-63.471 0v56.573m63.471-56.573h63.47m-63.47 0v56.573m63.47-56.573h63.471m-63.471 0v56.573m63.471-56.573h63.471m-63.471 0v56.573m63.471-56.573h63.47m-63.47 0v56.573m63.47-56.573h63.471m-63.471 0v56.573m63.471-56.573h63.47m-63.47 0v56.573m63.47-56.573h63.471m-63.471 0v56.573m63.471-56.573h63.471m-63.471 0v56.573m63.471-56.573h63.47m-63.47 0v56.573m63.47-56.573h63.471m-63.471 0v56.573m63.471-56.573h63.47m-63.47 0v56.573m63.47-56.573h63.471m-63.471 0v56.573m63.471-56.573h63.471m-63.471 0v56.573m63.471-56.573H1080m-63.47 0v56.573m63.47-56.573v56.573m-1015.53 0H1m63.47 0h63.471m-63.47 0v56.573M1 283.865v56.573m126.941-56.573h63.471m-63.471 0v56.573m63.471-56.573h63.47m-63.47 0v56.573m63.47-56.573h63.471m-63.471 0v56.573m63.471-56.573h63.471m-63.471 0v56.573m63.471-56.573h63.47m-63.47 0v56.573m63.47-56.573h63.471m-63.471 0v56.573m63.471-56.573h63.47m-63.47 0v56.573m63.47-56.573h63.471m-63.471 0v56.573m63.471-56.573h63.471m-63.471 0v56.573m63.471-56.573h63.47m-63.47 0v56.573m63.47-56.573h63.471m-63.471 0v56.573m63.471-56.573h63.47m-63.47 0v56.573m63.47-56.573h63.471m-63.471 0v56.573m63.471-56.573h63.471m-63.471 0v56.573m63.471-56.573H1080m-63.47 0v56.573m63.47-56.573v56.573m-1015.53 0H1m63.47 0h63.471m-63.47 0v56.573M1 340.438v56.573m126.941-56.573h63.471m-63.471 0v56.573m63.471-56.573h63.47m-63.47 0v56.573m63.47-56.573h63.471m-63.471 0v56.573m63.471-56.573h63.471m-63.471 0v56.573m63.471-56.573h63.47m-63.47 0v56.573m63.47-56.573h63.471m-63.471 0v56.573m63.471-56.573h63.47m-63.47 0v56.573m63.47-56.573h63.471m-63.471 0v56.573m63.471-56.573h63.471m-63.471 0v56.573m63.471-56.573h63.47m-63.47 0v56.573m63.47-56.573h63.471m-63.471 0v56.573m63.471-56.573h63.47m-63.47 0v56.573m63.47-56.573h63.471m-63.471 0v56.573m63.471-56.573h63.471m-63.471 0v56.573m63.471-56.573H1080m-63.47 0v56.573m63.47-56.573v56.573m-1015.53 0H1m63.47 0h63.471m-63.47 0v56.573M1 397.011v56.573m126.941-56.573h63.471m-63.471 0v56.573m63.471-56.573h63.47m-63.47 0v56.573m63.47-56.573h63.471m-63.471 0v56.573m63.471-56.573h63.471m-63.471 0v56.573m63.471-56.573h63.47m-63.47 0v56.573m63.47-56.573h63.471m-63.471 0v56.573m63.471-56.573h63.47m-63.47 0v56.573m63.47-56.573h63.471m-63.471 0v56.573m63.471-56.573h63.471m-63.471 0v56.573m63.471-56.573h63.47m-63.47 0v56.573m63.47-56.573h63.471m-63.471 0v56.573m63.471-56.573h63.47m-63.47 0v56.573m63.47-56.573h63.471m-63.471 0v56.573m63.471-56.573h63.471m-63.471 0v56.573m63.471-56.573H1080m-63.47 0v56.573m63.47-56.573v56.573m-1015.53 0H1m63.47 0h63.471m-63.47 0v56.573M1 453.584v56.573m126.941-56.573h63.471m-63.471 0v56.573m63.471-56.573h63.47m-63.47 0v56.573m63.47-56.573h63.471m-63.471 0v56.573m63.471-56.573h63.471m-63.471 0v56.573m63.471-56.573h63.47m-63.47 0v56.573m63.47-56.573h63.471m-63.471 0v56.573m63.471-56.573h63.47m-63.47 0v56.573m63.47-56.573h63.471m-63.471 0v56.573m63.471-56.573h63.471m-63.471 0v56.573m63.471-56.573h63.47m-63.47 0v56.573m63.47-56.573h63.471m-63.471 0v56.573m63.471-56.573h63.47m-63.47 0v56.573m63.47-56.573h63.471m-63.471 0v56.573m63.471-56.573h63.471m-63.471 0v56.573m63.471-56.573H1080m-63.47 0v56.573m63.47-56.573v56.573m-1015.53 0H1m63.47 0h63.471m-63.47 0v56.573M1 510.157v56.573m126.941-56.573h63.471m-63.471 0v56.573m63.471-56.573h63.47m-63.47 0v56.573m63.47-56.573h63.471m-63.471 0v56.573m63.471-56.573h63.471m-63.471 0v56.573m63.471-56.573h63.47m-63.47 0v56.573m63.47-56.573h63.471m-63.471 0v56.573m63.471-56.573h63.47m-63.47 0v56.573m63.47-56.573h63.471m-63.471 0v56.573m63.471-56.573h63.471m-63.471 0v56.573m63.471-56.573h63.47m-63.47 0v56.573m63.47-56.573h63.471m-63.471 0v56.573m63.471-56.573h63.47m-63.47 0v56.573m63.47-56.573h63.471m-63.471 0v56.573m63.471-56.573h63.471m-63.471 0v56.573m63.471-56.573H1080m-63.47 0v56.573m63.47-56.573v56.573m-1015.53 0H1m63.47 0h63.471m-63.47 0v56.573M1 566.73v56.573m126.941-56.573h63.471m-63.471 0v56.573m63.471-56.573h63.47m-63.47 0v56.573m63.47-56.573h63.471m-63.471 0v56.573m63.471-56.573h63.471m-63.471 0v56.573m63.471-56.573h63.47m-63.47 0v56.573m63.47-56.573h63.471m-63.471 0v56.573m63.471-56.573h63.47m-63.47 0v56.573m63.47-56.573h63.471m-63.471 0v56.573m63.471-56.573h63.471m-63.471 0v56.573m63.471-56.573h63.47m-63.47 0v56.573m63.47-56.573h63.471m-63.471 0v56.573m63.471-56.573h63.47m-63.47 0v56.573m63.47-56.573h63.471m-63.471 0v56.573m63.471-56.573h63.471m-63.471 0v56.573m63.471-56.573H1080m-63.47 0v56.573M1080 566.73v56.573m-1015.53 0H1m63.47 0h63.471m-63.47 0v56.573M1 623.303v56.573h63.47m63.471-56.573h63.471m-63.471 0v56.573m63.471-56.573h63.47m-63.47 0v56.573m63.47-56.573h63.471m-63.471 0v56.573m63.471-56.573h63.471m-63.471 0v56.573m63.471-56.573h63.47m-63.47 0v56.573m63.47-56.573h63.471m-63.471 0v56.573m63.471-56.573h63.47m-63.47 0v56.573m63.47-56.573h63.471m-63.471 0v56.573m63.471-56.573h63.471m-63.471 0v56.573m63.471-56.573h63.47m-63.47 0v56.573m63.47-56.573h63.471m-63.471 0v56.573m63.471-56.573h63.47m-63.47 0v56.573m63.47-56.573h63.471m-63.471 0v56.573m63.471-56.573h63.471m-63.471 0v56.573m63.471-56.573H1080m-63.47 0v56.573m63.47-56.573v56.573h-63.47m-952.06 0h63.471m0 0h63.471m0 0h63.47m0 0h63.471m0 0h63.471m0 0h63.47m0 0h63.471m0 0h63.47m0 0h63.471m0 0h63.471m0 0h63.47m0 0h63.471m0 0h63.47m0 0h63.471m0 0h63.471" opacity=".5"/><defs><radialGradient id="a" cx="0" cy="0" r="1" gradientTransform="matrix(0 583.797 -983.944 0 540.5 358.571)" gradientUnits="userSpaceOnUse"><stop stop-color="#001C64"/><stop offset="1" stop-color="#001C64" stop-opacity="0"/></radialGradient></defs></svg>