<svg xmlns="http://www.w3.org/2000/svg" width="19" height="19" fill="none"><path fill="#151515" d="M9.65 2.301c2.42 0 2.706.01 3.662.053a5 5 0 0 1 1.683.312 3 3 0 0 1 1.72 1.72c.2.539.305 1.108.312 1.683.043.956.053 1.242.053 3.662s-.01 2.707-.053 3.662a5 5 0 0 1-.312 1.683 3 3 0 0 1-1.72 1.72c-.54.2-1.108.306-1.683.313-.956.043-1.242.052-3.662.052s-2.707-.009-3.663-.052a5 5 0 0 1-1.683-.312 3 3 0 0 1-1.72-1.72 5 5 0 0 1-.312-1.684c-.043-.956-.052-1.242-.052-3.662s.009-2.706.052-3.662a5 5 0 0 1 .312-1.683 3 3 0 0 1 1.72-1.72c.54-.2 1.109-.305 1.683-.312C6.943 2.31 7.23 2.3 9.65 2.3m0-1.633c-2.46 0-2.77.01-3.737.054a6.7 6.7 0 0 0-2.2.422 4.4 4.4 0 0 0-1.605 1.045 4.4 4.4 0 0 0-1.046 1.605A6.7 6.7 0 0 0 .64 5.995C.597 6.961.587 7.271.587 9.731s.01 2.77.054 3.736c.015.752.158 1.497.421 2.201a4.4 4.4 0 0 0 1.046 1.605c.453.461 1 .818 1.605 1.046a6.7 6.7 0 0 0 2.201.421c.967.043 1.275.054 3.737.054 2.46 0 2.77-.01 3.736-.054a6.7 6.7 0 0 0 2.201-.421 4.64 4.64 0 0 0 2.65-2.652 6.7 6.7 0 0 0 .42-2.2c.044-.966.054-1.276.054-3.736s-.01-2.77-.054-3.737a6.7 6.7 0 0 0-.421-2.2 4.4 4.4 0 0 0-1.046-1.606 4.4 4.4 0 0 0-1.605-1.045 6.7 6.7 0 0 0-2.2-.422C12.418.678 12.11.668 9.65.668"/><path fill="#151515" d="M9.652 5.079a4.654 4.654 0 1 0 0 9.307 4.654 4.654 0 0 0 0-9.307m0 7.675a3.021 3.021 0 1 1 0-6.043 3.021 3.021 0 0 1 0 6.043M14.488 5.981a1.088 1.088 0 1 0 0-2.175 1.088 1.088 0 0 0 0 2.175"/></svg>