<svg xmlns="http://www.w3.org/2000/svg" width="16" height="13" fill="none"><path fill="#151515" d="M15.031 1.693c-.56.25-1.152.405-1.775.499A3 3 0 0 0 14.596.51a6.8 6.8 0 0 1-1.963.747 3.1 3.1 0 0 0-2.242-.965 3.057 3.057 0 0 0-3.052 3.052c0 .25.031.467.093.685A8.73 8.73 0 0 1 1.11.821c-.249.468-.405.966-.405 1.526a3.05 3.05 0 0 0 1.37 2.554 3.6 3.6 0 0 1-1.4-.373v.03a3.08 3.08 0 0 0 2.46 3.022c-.25.062-.53.093-.81.093-.187 0-.405-.031-.592-.062.405 1.214 1.526 2.117 2.865 2.117-1.059.81-2.367 1.309-3.8 1.309-.248 0-.497 0-.715-.032a8.67 8.67 0 0 0 4.702 1.37c5.637 0 8.72-4.67 8.72-8.72v-.404a5.6 5.6 0 0 0 1.526-1.558"/></svg>